# xmcd CD database file
#
# Track frame offsets:
#	150
#	19470
#	37234
#	57972
#	76357
#	98427
#	121387
#	129050
#	146748
#	168597
#	191963
#	211816
#	231469
#	253272
#	272078
#	292668
#	318505
#
# Disc length: 4558 seconds
#
# Revision: 0
# Processed by: cddbd v1.5.1PL0 Copyright (c) Steve Scherf et al.
# Submitted via: CDex 1.51
#
DISCID=fd11cc11
DTITLE=Nelly - Nellyville
DYEAR=1900
DGENRE=New Age
TTITLE0=Nellyville
TTITLE1=Hot in herre
TTITLE2=Dem Boyz
TTITLE3=Oh Nelly
TTITLE4=Pimp Juice
TTITLE5=Air Force Ones
TTITLE6=In The Store
TTITLE7=?
TTITLE8=Dilemma
TTITLE9=Splurge
TTITLE10=Work It
TTITLE11=Roc The Mic
TTITLE12=The Grank
TTITLE13=# 1
TTITLE14=CG2
TTITLE15=Say Now
TTITLE16=# 1
EXTD=
EXTT0=
EXTT1=
EXTT2=
EXTT3=
EXTT4=
EXTT5=
EXTT6=
EXTT7=
EXTT8=
EXTT9=
EXTT10=
EXTT11=
EXTT12=
EXTT13=
EXTT14=
EXTT15=
EXTT16=
PLAYORDER=
